<svg width="50" height="50" viewBox="0 0 50 50" fill="none" xmlns="http://www.w3.org/2000/svg">
<g clip-path="url(#clip0_26_19)">
<path d="M45.1793 10.5005H32.4411V14.1848H45.1793V10.5005Z" fill="#F4F4F4"/>
<path d="M26.1577 29.6938C26.0884 29.3171 25.9109 28.4711 25.4784 27.4667C25.103 26.594 24.8276 25.9539 24.2054 25.324C23.6689 24.7827 23.1119 24.4925 22.0817 23.9532C21.5615 23.6815 21.1167 23.4839 20.8087 23.3543C21.3473 23.132 22.1959 22.7039 23.016 21.897C23.3037 21.615 23.9239 20.9955 24.3747 20.0116C24.9011 18.8652 24.8949 17.8834 24.8847 16.5846C24.8745 15.292 24.8664 14.2258 24.2911 12.9867C23.726 11.7703 22.9344 11.0767 22.7631 10.9305C21.9674 10.2513 21.2045 9.98578 20.47 9.73055C19.0053 9.22216 17.7812 9.15423 17.3283 9.13159C15.2393 9.01839 11.5672 8.95046 6.87911 9.04309H0V40.7467H6.87911C10.7858 40.7179 14.6926 40.6891 18.5993 40.6603C19.448 40.3165 20.2987 39.9748 21.1473 39.6311C21.8042 39.4109 23.0222 38.9004 24.1197 37.7457C25.1601 36.6507 25.5722 35.5269 25.8191 34.8333C26.6494 32.4889 26.3026 30.4677 26.1598 29.6917L26.1577 29.6938ZM6.89951 14.4193C9.54547 14.3905 12.1935 14.3617 14.8394 14.3329C15.1557 14.3308 15.9839 14.3678 16.7918 14.9318C17.8016 15.6399 18.075 16.6793 18.1505 16.988C18.4422 18.1715 18.0464 19.1245 17.8955 19.4724C17.7445 19.8202 17.4181 20.5509 16.6225 21.1005C15.6963 21.7385 14.7374 21.72 14.4151 21.6994C11.9099 21.7571 9.40471 21.8147 6.89951 21.8703V14.4193ZM19.2154 32.4889C19.0481 32.8903 18.6809 33.7362 17.7894 34.3722C16.753 35.1111 15.6779 35.0885 15.3168 35.0659C12.5117 35.1317 9.70664 35.1976 6.89951 35.2635V26.6434C9.86372 26.6105 12.8279 26.5775 15.7922 26.5446C16.1471 26.5425 17.0754 26.5837 17.9791 27.2382C19.1113 28.0554 19.4153 29.2595 19.501 29.6155C19.8274 30.9843 19.3847 32.0855 19.2154 32.4889Z" fill="#F4F4F4"/>
<path d="M49.9164 30.1858C49.9592 29.7165 50.0041 29.0702 50.002 28.3004C50 27.4771 49.9959 26.3842 49.747 25.2151C49.3737 23.4656 48.6005 22.2512 47.964 21.2735C47.3459 20.3226 46.7196 19.3614 45.5853 18.4454C43.6248 16.8647 41.5256 16.5374 40.4892 16.3892C38.0269 16.0372 36.0868 16.5683 35.3095 16.8173C34.2119 17.1693 31.8944 18.0955 29.9584 20.4152C28.1387 22.597 27.647 24.8384 27.4103 25.9849C26.7922 28.9694 27.3247 31.3735 27.5797 32.3264C27.9204 33.6005 28.5691 35.9017 30.6377 37.8961C32.2963 39.4954 34.0426 40.1005 34.8831 40.3805C38.4593 41.5763 41.5439 40.7304 42.6109 40.3805C43.6962 40.0264 45.5343 39.4007 47.197 37.6388C48.8535 35.8852 49.441 33.9545 49.6593 33.0118H43.9696C43.8676 33.2362 43.7064 33.5429 43.4596 33.8681C42.9108 34.5926 42.2824 34.9548 41.9315 35.1524C40.5831 35.9119 39.2407 35.9325 38.7898 35.9243C38.0554 35.9099 36.5335 35.877 35.2238 34.7243C33.963 33.617 33.6774 32.1618 33.6101 31.7254C33.5122 31.0894 33.555 30.5501 33.6101 30.1838H49.9164V30.1858ZM33.5265 26.0734C33.502 25.6576 33.502 24.6305 34.1201 23.5891C34.7954 22.4529 35.7971 21.9877 36.2438 21.7901C37.4352 21.2591 38.4838 21.3558 39.4712 21.4464C40.3811 21.5308 41.0156 21.5905 41.6786 22.0454C42.4191 22.5558 42.7557 23.2597 43.0373 23.8443C43.4494 24.7026 43.584 25.4827 43.6309 25.9869C40.2628 26.0158 36.8926 26.0446 33.5244 26.0734H33.5265Z" fill="#F4F4F4"/>
</g>
<defs>
<clipPath id="clip0_26_19">
<rect width="50" height="32" fill="white" transform="translate(0 9)"/>
</clipPath>
</defs>
</svg>
