<svg width="50" height="50" viewBox="0 0 50 50" fill="none" xmlns="http://www.w3.org/2000/svg">
<path d="M36.0456 0H13.9544C6.24683 0 0 6.24683 0 13.9544V36.0456C0 43.7532 6.24683 50 13.9544 50H36.0456C43.7532 50 50 43.7532 50 36.0456V13.9544C50 6.24683 43.7532 0 36.0456 0ZM45.6731 35.6395C45.6731 41.2747 41.104 45.8439 35.4687 45.8439H14.6098C8.97448 45.8439 4.40532 41.2747 4.40532 35.6395V14.7828C4.40532 9.14755 8.97448 4.57839 14.6098 4.57839H35.4664C41.1017 4.57839 45.6708 9.14755 45.6708 14.7828V35.6395H45.6731Z" fill="white"/>
<path d="M25.0196 12.0506C17.7805 12.0506 11.9144 17.9189 11.9144 25.1581C11.9144 32.3972 17.7828 38.2656 25.0196 38.2656C32.2564 38.2656 38.1248 32.3972 38.1248 25.1581C38.1248 17.9189 32.2564 12.0506 25.0196 12.0506ZM24.985 33.3733C20.402 33.3733 16.6867 29.658 16.6867 25.075C16.6867 20.492 20.402 16.7766 24.985 16.7766C29.568 16.7766 33.2833 20.492 33.2833 25.075C33.2833 29.658 29.568 33.3733 24.985 33.3733Z" fill="white"/>
<path d="M38.3509 14.6859C40.0447 14.6859 41.4178 13.3128 41.4178 11.6191C41.4178 9.92527 40.0447 8.55219 38.3509 8.55219C36.6571 8.55219 35.2841 9.92527 35.2841 11.6191C35.2841 13.3128 36.6571 14.6859 38.3509 14.6859Z" fill="white"/>
</svg>
