<svg width="50" height="50" viewBox="0 0 50 50" fill="none" xmlns="http://www.w3.org/2000/svg">
<path d="M9.15814 14.2086C11.9444 14.2086 14.203 11.95 14.203 9.16376C14.203 6.37754 11.9444 4.11887 9.15814 4.11887C6.37193 4.11887 4.11325 6.37754 4.11325 9.16376C4.11325 11.95 6.37193 14.2086 9.15814 14.2086Z" fill="#F4F4F4"/>
<path d="M13.3822 17.9622H4.78207V45.7925H13.3822V17.9622Z" fill="#F4F4F4"/>
<path d="M37.2374 45.8748C40.1575 45.8473 43.0798 45.8199 46 45.7946C45.9726 40.007 45.9451 34.2194 45.9198 28.4318C45.9072 27.7777 45.8544 26.8515 45.6772 25.7543C45.4704 24.4756 45.2932 23.3827 44.7045 22.1842C44.4998 21.7686 43.6938 20.2135 41.9468 18.9391C39.8326 17.3968 37.6636 17.2259 36.5917 17.1541C34.467 17.0149 32.8909 17.5213 32.5343 17.6415C30.8801 18.1985 29.8019 19.0467 29.1267 19.589C28.7111 19.9224 28.0823 20.4267 27.4641 21.1229V17.9665H18.8639V45.7967H27.4641V30.0565C27.4704 29.664 27.521 29.0859 27.7489 28.4339C28.3123 26.805 29.5339 25.9505 29.9391 25.6762C30.3273 25.4125 31.0215 24.9525 32.049 24.7837C32.5047 24.7099 33.7855 24.52 35.0515 25.2711C36.022 25.8471 36.4693 26.67 36.674 27.0561C37.2121 28.0752 37.2521 29.0289 37.2416 29.491V45.8811L37.2374 45.8748Z" fill="#F4F4F4"/>
</svg>
