<svg width="61" height="15" viewBox="0 0 61 15" fill="none" xmlns="http://www.w3.org/2000/svg">
<g clip-path="url(#clip0_17_14)">
<path d="M13.3685 15H21.6143C21.8763 15 22.1335 14.9307 22.3604 14.7991C22.5868 14.6678 22.7751 14.4785 22.9064 14.25C23.0372 14.0223 23.1061 13.7635 23.1061 13.4999C23.1059 13.2364 23.0368 12.9776 22.9058 12.7501L17.3681 3.10718C17.2367 2.87875 17.0484 2.68941 16.8221 2.55818C16.595 2.42644 16.3378 2.35718 16.0762 2.35725C15.8144 2.35725 15.5571 2.42663 15.3304 2.55825C15.104 2.68946 14.9157 2.87881 14.7844 3.10725L13.3685 5.57445L10.6 0.74985C10.4686 0.521387 10.2802 0.33204 10.0538 0.20085C9.82659 0.0691596 9.56945 -7.43594e-05 9.30779 5.99314e-08C9.04589 5.99314e-08 8.78859 0.0693 8.56174 0.200925C8.33534 0.332109 8.14697 0.521425 8.01555 0.74985L1.12455 12.75C0.993525 12.9776 0.924404 13.2364 0.924244 13.4999C0.924096 13.7633 0.993008 14.0219 1.12388 14.25C1.25524 14.4785 1.44356 14.6678 1.66992 14.7991C1.89711 14.9308 2.15428 15.0001 2.41597 15H7.59202C9.64288 15 11.1553 14.0944 12.1959 12.3275L14.7225 7.92863L16.0758 5.57445L20.1373 12.6458H14.7225L13.3685 15ZM7.50766 12.6434L3.89542 12.6426L9.31015 3.21465L12.012 7.92863L10.203 11.0794C9.51186 12.2258 8.72677 12.6434 7.50766 12.6434Z" fill="#00DC82"/>
<path d="M28.7994 15C28.8778 15 28.9531 14.9684 29.0085 14.9121C29.064 14.8559 29.0952 14.7796 29.0952 14.7V7.725C29.0952 7.725 29.4829 8.34645 30.2042 9.6L33.0662 14.6221C33.1985 14.856 33.4421 15 33.7057 15H35.6758V3.75H33.6794C33.601 3.75 33.5257 3.78161 33.4703 3.83787C33.4148 3.89413 33.3836 3.97044 33.3836 4.05V11.1L32.1267 8.85L29.4214 4.1265C29.2889 3.8934 29.0457 3.75 28.7826 3.75H26.803V15H28.7994ZM50.9223 10.7893L53.462 6.9H51.5595C51.4371 6.90022 51.3167 6.93134 51.2091 6.99055C51.1016 7.04976 51.0102 7.13519 50.9434 7.23915L49.7802 9.0375L48.6171 7.23915C48.5502 7.13519 48.4588 7.04976 48.3513 6.99055C48.2437 6.93134 48.1233 6.90022 48.0009 6.9H46.1135L48.6532 10.7732L45.9181 15H47.7641C47.8855 14.9998 48.005 14.9692 48.1119 14.9108C48.2189 14.8525 48.31 14.7683 48.3771 14.6657L49.7952 12.509L51.1987 14.663C51.2656 14.7663 51.3568 14.8512 51.4641 14.9101C51.5714 14.9689 51.6914 14.9998 51.8133 15H53.6423L50.9223 10.7893ZM54.5006 6.9H55.9582V4.50532H58.0471V6.9H60.0758V8.76428H58.0471V11.9625C58.0471 12.75 58.4378 13.1197 59.114 13.1197H60.0758V15H58.8285C57.0853 15 55.9582 13.9393 55.9582 12.0589V8.76428H54.5006V6.9ZM44.5485 6.9H43.4394C43.1814 6.9 42.9796 6.91088 42.8109 7.08923C42.6422 7.25768 42.6261 7.36147 42.6261 7.61917V11.5556C42.6261 12.16 42.5983 12.5278 42.3303 12.825C42.0623 13.1123 41.693 13.2 41.1473 13.2C40.6114 13.2 40.2322 13.1123 39.9642 12.825C39.6963 12.5278 39.6685 12.16 39.6685 11.5556V7.61917C39.6685 7.36155 39.6524 7.25768 39.4836 7.08923C39.3149 6.91088 39.1131 6.9 38.8552 6.9H37.7461V11.5817C37.7461 12.632 38.0338 13.4642 38.6094 14.0786C39.1948 14.6929 40.0458 15 41.1473 15C42.2488 15 43.0848 14.6929 43.6703 14.0786C44.2558 13.4642 44.5485 12.632 44.5485 11.5817V6.9Z" fill="white"/>
</g>
<defs>
<clipPath id="clip0_17_14">
<rect width="61" height="15" fill="white"/>
</clipPath>
</defs>
</svg>
