<?xml version="1.0" encoding="utf-8"?>
<!-- Generator: Adobe Illustrator 27.8.1, SVG Export Plug-In . SVG Version: 6.00 Build 0)  -->
<svg version="1.1" id="Camada_1" xmlns="http://www.w3.org/2000/svg" xmlns:xlink="http://www.w3.org/1999/xlink" x="0px" y="0px"
	 viewBox="0 0 262 33" style="enable-background:new 0 0 262 33;" xml:space="preserve">
<style type="text/css">
	.st0{clip-path:url(#SVGID_00000112604399994042955160000007246825666459077034_);}
	.st1{fill-rule:evenodd;clip-rule:evenodd;fill:#38BDF8;}
	.st2{fill-rule:evenodd;clip-rule:evenodd;fill:#FCFCFC;}
</style>
<g>
	<defs>
		<rect id="SVGID_1_" width="262" height="32.4"/>
	</defs>
	<clipPath id="SVGID_00000085227047137125842950000017527302812383866509_">
		<use xlink:href="#SVGID_1_"  style="overflow:visible;"/>
	</clipPath>
	<g style="clip-path:url(#SVGID_00000085227047137125842950000017527302812383866509_);">
		<path class="st1" d="M27,0c-7.2,0-11.7,3.6-13.5,10.8c2.7-3.6,5.9-4.9,9.5-4.1c2.1,0.5,3.5,2,5.1,3.7c2.6,2.7,5.7,5.8,12.4,5.8
			c7.2,0,11.7-3.6,13.5-10.8c-2.7,3.6-5.8,4.9-9.5,4.1c-2.1-0.5-3.5-2-5.1-3.7C36.8,3.1,33.7,0,27,0z M13.5,16.2
			C6.3,16.2,1.8,19.8,0,27c2.7-3.6,5.8-5,9.4-4c2.1,0.5,3.5,2,5.1,3.7c2.6,2.7,5.7,5.8,12.4,5.8c7.2,0,11.7-3.6,13.5-10.8
			c-2.7,3.6-5.8,5-9.5,4c-2.1-0.5-3.5-2-5.1-3.7C23.3,19.3,20.2,16.2,13.5,16.2z"/>
		<path class="st2" d="M81,13.7h-4.7v9.1c0,2.4,1.6,2.4,4.7,2.2v3.7c-6.3,0.8-8.8-1-8.8-5.9v-9.1h-3.5v-4h3.5V4.6l4.1-1.2v6.3H81
			C81,9.7,81,13.7,81,13.7z M99,9.7h4.1v19H99V26c-1.4,2-3.7,3.2-6.7,3.2c-5.2,0-9.5-4.4-9.5-10c0-5.7,4.3-10,9.5-10
			c3,0,5.2,1.2,6.7,3.2C99,12.4,99,9.7,99,9.7z M93,25.3c3.4,0,6-2.5,6-6.1s-2.6-6.1-6-6.1s-6,2.5-6,6.1S89.5,25.3,93,25.3z
			 M109.9,6.8c-1.4,0-2.6-1.2-2.6-2.6c0-1.4,1.2-2.6,2.6-2.6c1.4,0,2.6,1.2,2.6,2.6C112.5,5.6,111.3,6.8,109.9,6.8z M107.8,28.7v-19
			h4.1v19C112,28.7,107.8,28.7,107.8,28.7z M116.7,28.7V1h4.1v27.7H116.7z M147.4,9.7h4.3l-6,19h-4l-4-12.8l-4,12.8h-4l-6-19h4.3
			l3.7,13.1l4-13.1h3.9l4,13.1C143.7,22.8,147.4,9.7,147.4,9.7z M156.9,6.9c-1.4,0-2.6-1.2-2.6-2.6c0-1.4,1.2-2.6,2.6-2.6
			c1.4,0,2.6,1.2,2.6,2.6C159.5,5.6,158.3,6.9,156.9,6.9z M154.8,28.7v-19h4.1v19H154.8z M173.7,9.2c4.3,0,7.3,2.9,7.3,7.8v11.7
			h-4.1V17.5c0-2.9-1.7-4.4-4.3-4.4c-2.7,0-4.8,1.6-4.8,5.5v10.2h-4.1v-19h4.1v2.4C169,10.2,171.1,9.2,173.7,9.2z M200.4,2.1h4.1
			v26.6h-4.1V26c-1.4,2-3.7,3.2-6.6,3.2c-5.2,0-9.5-4.4-9.5-10c0-5.7,4.3-10,9.5-10c3,0,5.2,1.2,6.6,3.2V2.1z M194.4,25.3
			c3.4,0,6-2.5,6-6.1s-2.6-6.1-6-6.1s-6,2.5-6,6.1S191,25.3,194.4,25.3z M218.3,29.2c-5.7,0-10-4.4-10-10c0-5.7,4.3-10,10-10
			c3.7,0,7,1.9,8.5,4.9l-3.5,2.1c-0.8-1.8-2.7-2.9-5-2.9c-3.3,0-5.9,2.5-5.9,6s2.5,6,5.9,6c2.3,0,4.1-1.2,5.1-2.9l3.5,2
			C225.2,27.3,222,29.2,218.3,29.2z M233.6,14.9c0,3.5,10.2,1.4,10.2,8.4c0,3.8-3.3,5.9-7.4,5.9c-3.8,0-6.5-1.7-7.8-4.4l3.5-2.1
			c0.6,1.7,2.1,2.7,4.2,2.7c1.8,0,3.2-0.6,3.2-2.1c0-3.4-10.2-1.5-10.2-8.3c0-3.6,3.1-5.8,7-5.8c3.1,0,5.7,1.4,7,4l-3.5,1.9
			c-0.7-1.5-2-2.2-3.6-2.2C234.9,12.9,233.6,13.6,233.6,14.9L233.6,14.9z M251.1,14.9c0,3.5,10.2,1.4,10.2,8.4
			c0,3.8-3.3,5.9-7.4,5.9c-3.8,0-6.5-1.7-7.8-4.4l3.5-2.1c0.6,1.7,2.1,2.7,4.2,2.7c1.8,0,3.2-0.6,3.2-2.1c0-3.4-10.2-1.5-10.2-8.3
			c0-3.6,3.1-5.8,7-5.8c3.1,0,5.7,1.4,7,4l-3.5,1.9c-0.7-1.5-2-2.2-3.6-2.2C252.4,12.9,251.1,13.6,251.1,14.9L251.1,14.9z"/>
	</g>
</g>
</svg>
